<?xml version="1.0" standalone="no"?>
<!DOCTYPE svg PUBLIC "-//W3C//DTD SVG 1.1//EN" "http://www.w3.org/Graphics/SVG/1.1/DTD/svg11.dtd" >
<svg xmlns="http://www.w3.org/2000/svg">
<metadata></metadata>
<defs>
<font id="abstractregular" horiz-adv-x="5632" >
<font-face units-per-em="2048" ascent="1638" descent="-410" />
<missing-glyph horiz-adv-x="3840" />
<glyph horiz-adv-x="2048" />
<glyph horiz-adv-x="2048" />
<glyph unicode="&#xd;" horiz-adv-x="3840" />
<glyph unicode=" "  horiz-adv-x="3840" />
<glyph unicode="&#x09;" horiz-adv-x="3840" />
<glyph unicode="&#xa0;" horiz-adv-x="3840" />
<glyph unicode="!" horiz-adv-x="1280" d="M-14 -8v528h526v-528h-526zM-14 762v1806h526v-1806h-526z" />
<glyph unicode="&#x22;" horiz-adv-x="2048" d="M-14 1530v1038h526v-1038h-526zM754 1530v1038h526v-1038h-526z" />
<glyph unicode="#" d="M-14 506v526h1024v498h-1024v526h1024v512h526v-512h1778v512h526v-512h1024v-526h-1024v-498h1024v-526h-1024v-514h-526v514h-1778v-514h-526v514h-1024zM1536 1032h1778v498h-1778v-498z" />
<glyph unicode="$" d="M-14 -8v528h2304v498h-2304v1550h2304v512h526v-512h2048v-526h-2048v-498h2048v-1552h-2048v-512h-526v512h-2304zM512 1544h1778v498h-1778v-498zM2816 520h1522v498h-1522v-498z" />
<glyph unicode="%" horiz-adv-x="4352" d="M-14 1530v782h256v256h1038v-256h256v-768h242v256h256v256h256v256h256v256h782v-270h-256v-256h-256v-256h-256v-256h-256v-242h1024v-256h256v-782h-256v-258h-1038v258h-256v768h-242v-256h-256v-256h-256v-256h-256v-258h-782v272h256v256h256v256h256v256h256v242 h-1024v256h-256zM512 1544h498v754h-498v-754zM1280 1288h242v242h-242v-242zM2048 1032h242v242h-242v-242zM2560 264h498v754h-498v-754z" />
<glyph unicode="&#x26;" horiz-adv-x="5376" d="M-14 -8v1808h768v768h2574v-1536h498v256h782v-526h-768v-242h768v-528h-782v258h-498v-258h-3342zM512 520h2290v754h-2290v-754zM1280 1800h1522v242h-1522v-242z" />
<glyph unicode="'" horiz-adv-x="1280" d="M-14 1530v1038h526v-1038h-526z" />
<glyph unicode="(" horiz-adv-x="1792" d="M-14 -8v2576h256v256h256v256h526v-270h-256v-256h-256v-2546h256v-258h256v-270h-526v256h-256v256h-256z" />
<glyph unicode=")" horiz-adv-x="1792" d="M-14 -250h256v258h256v2546h-256v256h-256v270h526v-256h256v-256h256v-2576h-256v-256h-256v-256h-526v270z" />
<glyph unicode="*" horiz-adv-x="2816" d="M-14 1530v270h512v242h-256v270h526v-256h498v256h526v-270h-256v-242h512v-270h-512v-242h256v-270h-526v256h-498v-256h-526v270h256v242h-512z" />
<glyph unicode="+" horiz-adv-x="4352" d="M-14 1018v526h1536v1024h526v-1024h1536v-526h-1536v-1026h-526v1026h-1536z" />
<glyph unicode="," horiz-adv-x="1280" d="M-14 -520v1040h526v-1040h-526z" />
<glyph unicode="-" horiz-adv-x="4864" d="M-14 1018v526h4110v-526h-4110z" />
<glyph unicode="." horiz-adv-x="1280" d="M-14 -8v528h526v-528h-526z" />
<glyph unicode="/" horiz-adv-x="3840" d="M-14 -8v272h256v256h256v256h256v256h256v256h256v256h256v256h256v256h256v256h256v256h782v-270h-256v-256h-256v-256h-256v-256h-256v-256h-256v-256h-256v-256h-256v-256h-256v-256h-256v-258h-782z" />
<glyph unicode="0" d="M-14 -8v2576h4878v-2576h-4878zM512 520h3826v1522h-3826v-1522z" />
<glyph unicode="1" horiz-adv-x="1280" d="M-14 -8v2576h526v-2576h-526z" />
<glyph unicode="2" d="M-14 -8v1552h4352v498h-4352v526h4878v-1550h-4352v-498h4352v-528h-4878z" />
<glyph unicode="3" d="M-14 -8v528h4352v498h-4352v526h4352v498h-4352v526h4878v-2576h-4878z" />
<glyph unicode="4" d="M-14 1018v1550h526v-1024h3826v1024h526v-2576h-526v1026h-4352z" />
<glyph unicode="5" d="M-14 -8v528h4352v498h-4352v1550h4878v-526h-4352v-498h4352v-1552h-4878z" />
<glyph unicode="6" d="M-14 -8v2576h4878v-526h-4352v-498h4352v-1552h-4878zM512 520h3826v498h-3826v-498z" />
<glyph unicode="7" d="M-14 2042v526h4878v-2576h-526v2050h-4352z" />
<glyph unicode="8" d="M-14 -8v2576h4878v-2576h-4878zM512 520h3826v498h-3826v-498zM512 1544h3826v498h-3826v-498z" />
<glyph unicode="9" d="M-14 -8v528h4352v498h-4352v1550h4878v-2576h-4878zM512 1544h3826v498h-3826v-498z" />
<glyph unicode=":" horiz-adv-x="1280" d="M-14 -8v528h526v-528h-526zM-14 2042v526h526v-526h-526z" />
<glyph unicode=";" horiz-adv-x="1280" d="M-14 -520v1040h526v-1040h-526zM-14 1274v526h526v-526h-526z" />
<glyph unicode="&#x3c;" horiz-adv-x="2560" d="M-14 1018v526h256v256h256v256h256v256h256v256h782v-270h-256v-256h-256v-256h-256v-256h-256v-498h256v-256h256v-256h256v-256h256v-272h-782v258h-256v256h-256v256h-256v256h-256z" />
<glyph unicode="=" horiz-adv-x="4864" d="M-14 506v526h4110v-526h-4110zM-14 1530v526h4110v-526h-4110z" />
<glyph unicode="&#x3e;" horiz-adv-x="2560" d="M-14 -8v272h256v256h256v256h256v256h256v498h-256v256h-256v256h-256v256h-256v270h782v-256h256v-256h256v-256h256v-256h256v-526h-256v-256h-256v-256h-256v-256h-256v-258h-782z" />
<glyph unicode="?" horiz-adv-x="4608" d="M-14 2042v526h3854v-1550h-1792v-256h-526v782h1792v498h-3328zM1522 -8v528h526v-528h-526z" />
<glyph unicode="@" d="M-14 -8v2576h4878v-1806h-3854v1038h2830v-512h498v754h-3826v-1522h3840v-528h-4366zM1536 1032h1778v498h-1778v-498z" />
<glyph unicode="A" d="M-14 -8v2576h4878v-2576h-526v770h-3826v-770h-526zM512 1288h3826v754h-3826v-754z" />
<glyph unicode="B" d="M-14 -8v2576h4622v-256h256v-782h-256v-498h256v-782h-256v-258h-4622zM512 520h3826v498h-3826v-498zM512 1544h3826v498h-3826v-498z" />
<glyph unicode="C" d="M-14 -8v2576h4878v-526h-4352v-1522h4352v-528h-4878z" />
<glyph unicode="D" d="M-14 -8v2576h4622v-256h256v-2062h-256v-258h-4622zM512 520h3826v1522h-3826v-1522z" />
<glyph unicode="E" d="M-14 -8v2576h4878v-526h-4352v-498h4352v-526h-4352v-498h4352v-528h-4878z" />
<glyph unicode="F" d="M-14 -8v2576h4878v-526h-4352v-498h4352v-526h-4352v-1026h-526z" />
<glyph unicode="G" d="M-14 -8v2576h4878v-526h-4352v-1522h3826v498h-2560v526h3086v-1552h-4878z" />
<glyph unicode="H" d="M-14 -8v2576h526v-1024h3826v1024h526v-2576h-526v1026h-3826v-1026h-526z" />
<glyph unicode="I" horiz-adv-x="1280" d="M-14 -8v2576h526v-2576h-526z" />
<glyph unicode="J" d="M-14 -8v528h4352v2048h526v-2576h-4878z" />
<glyph unicode="K" d="M-14 -8v2576h526v-1024h2802v256h256v256h256v256h256v256h782v-270h-256v-256h-256v-256h-256v-256h-256v-498h256v-256h256v-256h256v-256h256v-272h-782v258h-256v256h-256v256h-256v256h-2802v-1026h-526z" />
<glyph unicode="L" d="M-14 -8v2576h526v-2048h4352v-528h-4878z" />
<glyph unicode="M" horiz-adv-x="6400" d="M-14 -8v2576h5646v-2576h-526v2050h-2034v-2050h-526v2050h-2034v-2050h-526z" />
<glyph unicode="N" d="M-14 -8v2576h4878v-2576h-526v2050h-3826v-2050h-526z" />
<glyph unicode="O" d="M-14 -8v2576h4878v-2576h-4878zM512 520h3826v1522h-3826v-1522z" />
<glyph unicode="P" d="M-14 -8v2576h4878v-1550h-4352v-1026h-526zM512 1544h3826v498h-3826v-498z" />
<glyph unicode="Q" d="M-14 -8v2576h4878v-2576h-2048v-768h-526v768h-2304zM512 520h3826v1522h-3826v-1522z" />
<glyph unicode="R" d="M-14 -8v2576h4878v-1806h-512v-242h256v-256h256v-272h-782v258h-256v256h-256v256h-3058v-770h-526zM512 1288h3826v754h-3826v-754z" />
<glyph unicode="S" d="M-14 -8v528h4352v498h-4352v1550h4878v-526h-4352v-498h4352v-1552h-4878z" />
<glyph unicode="T" horiz-adv-x="5376" d="M-14 2042v526h4622v-526h-2048v-2050h-526v2050h-2048z" />
<glyph unicode="U" d="M-14 -8v2576h526v-2048h3826v2048h526v-2576h-4878z" />
<glyph unicode="V" horiz-adv-x="6400" d="M-14 2298v270h782v-256h256v-256h256v-256h256v-256h256v-256h256v-256h256v-256h256v-256h498v256h256v256h256v256h256v256h256v256h256v256h256v256h256v256h782v-270h-256v-256h-256v-256h-256v-256h-256v-256h-256v-256h-256v-256h-256v-256h-256v-256h-256v-258 h-1038v258h-256v256h-256v256h-256v256h-256v256h-256v256h-256v256h-256v256h-256v256h-256z" />
<glyph unicode="W" horiz-adv-x="6400" d="M-14 -8v2576h526v-2048h2034v2048h526v-2048h2034v2048h526v-2576h-5646z" />
<glyph unicode="X" d="M-14 -8v272h256v256h256v256h256v256h256v498h-256v256h-256v256h-256v256h-256v270h782v-256h256v-256h256v-256h256v-256h1778v256h256v256h256v256h256v256h782v-270h-256v-256h-256v-256h-256v-256h-256v-498h256v-256h256v-256h256v-256h256v-272h-782v258h-256v256 h-256v256h-256v256h-1778v-256h-256v-256h-256v-256h-256v-258h-782z" />
<glyph unicode="Y" horiz-adv-x="5376" d="M-14 1018v1550h526v-1024h3570v1024h526v-1550h-2048v-1026h-526v1026h-2048z" />
<glyph unicode="Z" d="M-14 -8v1296h256v256h4096v498h-4352v526h4878v-1294h-256v-256h-4096v-498h4352v-528h-4878z" />
<glyph unicode="[" horiz-adv-x="1792" d="M-14 -520v3600h1038v-526h-512v-2546h512v-528h-1038z" />
<glyph unicode="\" horiz-adv-x="3840" d="M-14 2298v270h782v-256h256v-256h256v-256h256v-256h256v-256h256v-256h256v-256h256v-256h256v-256h256v-272h-782v258h-256v256h-256v256h-256v256h-256v256h-256v256h-256v256h-256v256h-256v256h-256z" />
<glyph unicode="]" horiz-adv-x="1792" d="M-14 8h512v2546h-512v526h1038v-3600h-1038v528z" />
<glyph unicode="^" horiz-adv-x="2816" d="M-14 1018v270h256v256h256v256h256v256h526v-256h256v-256h256v-256h256v-270h-782v256h-498v-256h-782z" />
<glyph unicode="_" horiz-adv-x="4864" d="M-14 -250h4110v-526h-4110v526z" />
<glyph unicode="`" horiz-adv-x="2048" d="M-14 2298v270h782v-256h256v-256h256v-270h-782v256h-256v256h-256z" />
<glyph unicode="a" d="M-14 -8v2576h4878v-2576h-526v770h-3826v-770h-526zM512 1288h3826v754h-3826v-754z" />
<glyph unicode="b" d="M-14 -8v2576h4622v-256h256v-782h-256v-498h256v-782h-256v-258h-4622zM512 520h3826v498h-3826v-498zM512 1544h3826v498h-3826v-498z" />
<glyph unicode="c" d="M-14 -8v2576h4878v-526h-4352v-1522h4352v-528h-4878z" />
<glyph unicode="d" d="M-14 -8v2576h4622v-256h256v-2062h-256v-258h-4622zM512 520h3826v1522h-3826v-1522z" />
<glyph unicode="e" d="M-14 -8v2576h4878v-526h-4352v-498h4352v-526h-4352v-498h4352v-528h-4878z" />
<glyph unicode="f" d="M-14 -8v2576h4878v-526h-4352v-498h4352v-526h-4352v-1026h-526z" />
<glyph unicode="g" d="M-14 -8v2576h4878v-526h-4352v-1522h3826v498h-2560v526h3086v-1552h-4878z" />
<glyph unicode="h" d="M-14 -8v2576h526v-1024h3826v1024h526v-2576h-526v1026h-3826v-1026h-526z" />
<glyph unicode="i" horiz-adv-x="1280" d="M-14 -8v2576h526v-2576h-526z" />
<glyph unicode="j" d="M-14 -8v528h4352v2048h526v-2576h-4878z" />
<glyph unicode="k" d="M-14 -8v2576h526v-1024h2802v256h256v256h256v256h256v256h782v-270h-256v-256h-256v-256h-256v-256h-256v-498h256v-256h256v-256h256v-256h256v-272h-782v258h-256v256h-256v256h-256v256h-2802v-1026h-526z" />
<glyph unicode="l" d="M-14 -8v2576h526v-2048h4352v-528h-4878z" />
<glyph unicode="m" horiz-adv-x="6400" d="M-14 -8v2576h5646v-2576h-526v2050h-2034v-2050h-526v2050h-2034v-2050h-526z" />
<glyph unicode="n" d="M-14 -8v2576h4878v-2576h-526v2050h-3826v-2050h-526z" />
<glyph unicode="o" d="M-14 -8v2576h4878v-2576h-4878zM512 520h3826v1522h-3826v-1522z" />
<glyph unicode="p" d="M-14 -8v2576h4878v-1550h-4352v-1026h-526zM512 1544h3826v498h-3826v-498z" />
<glyph unicode="q" d="M-14 -8v2576h4878v-2576h-2048v-768h-526v768h-2304zM512 520h3826v1522h-3826v-1522z" />
<glyph unicode="r" d="M-14 -8v2576h4878v-1806h-512v-242h256v-256h256v-272h-782v258h-256v256h-256v256h-3058v-770h-526zM512 1288h3826v754h-3826v-754z" />
<glyph unicode="s" d="M-14 -8v528h4352v498h-4352v1550h4878v-526h-4352v-498h4352v-1552h-4878z" />
<glyph unicode="t" horiz-adv-x="5376" d="M-14 2042v526h4622v-526h-2048v-2050h-526v2050h-2048z" />
<glyph unicode="u" d="M-14 -8v2576h526v-2048h3826v2048h526v-2576h-4878z" />
<glyph unicode="v" horiz-adv-x="6400" d="M-14 2298v270h782v-256h256v-256h256v-256h256v-256h256v-256h256v-256h256v-256h256v-256h498v256h256v256h256v256h256v256h256v256h256v256h256v256h256v256h782v-270h-256v-256h-256v-256h-256v-256h-256v-256h-256v-256h-256v-256h-256v-256h-256v-256h-256v-258 h-1038v258h-256v256h-256v256h-256v256h-256v256h-256v256h-256v256h-256v256h-256v256h-256z" />
<glyph unicode="w" horiz-adv-x="6400" d="M-14 -8v2576h526v-2048h2034v2048h526v-2048h2034v2048h526v-2576h-5646z" />
<glyph unicode="x" d="M-14 -8v272h256v256h256v256h256v256h256v498h-256v256h-256v256h-256v256h-256v270h782v-256h256v-256h256v-256h256v-256h1778v256h256v256h256v256h256v256h782v-270h-256v-256h-256v-256h-256v-256h-256v-498h256v-256h256v-256h256v-256h256v-272h-782v258h-256v256 h-256v256h-256v256h-1778v-256h-256v-256h-256v-256h-256v-258h-782z" />
<glyph unicode="y" horiz-adv-x="5376" d="M-14 1018v1550h526v-1024h3570v1024h526v-1550h-2048v-1026h-526v1026h-2048z" />
<glyph unicode="z" d="M-14 -8v1296h256v256h4096v498h-4352v526h4878v-1294h-256v-256h-4096v-498h4352v-528h-4878z" />
<glyph unicode="{" horiz-adv-x="2048" d="M-14 1018v270h512v1536h782v-526h-256v-1024h-256v-242h256v-1024h256v-528h-782v1538h-512z" />
<glyph unicode="|" horiz-adv-x="1280" d="M-14 -264v3088h526v-3088h-526z" />
<glyph unicode="}" horiz-adv-x="2048" d="M-14 8h256v1024h256v242h-256v1024h-256v526h782v-1536h512v-270h-512v-1538h-782v528z" />
<glyph unicode="~" horiz-adv-x="3840" d="M-14 762v1038h1806v-512h754v512h526v-1038h-1806v512h-754v-512h-526z" />
<glyph unicode="&#xa1;" horiz-adv-x="1280" d="M-14 -776v1808h526v-1808h-526zM-14 1274v526h526v-526h-526z" />
<glyph unicode="&#xa3;" d="M-14 -8v528h512v498h-512v526h512v1024h3854v-526h-3328v-498h1536v-526h-1536v-498h3840v-528h-4878z" />
<glyph unicode="&#xa5;" horiz-adv-x="5376" d="M-14 506v526h2048v242h-2048v1294h526v-768h3570v768h526v-1294h-2048v-242h2048v-526h-2048v-514h-526v514h-2048z" />
<glyph unicode="&#xa9;" horiz-adv-x="3584" d="M-14 -8v2576h2830v-2576h-2830zM512 520h1778v1522h-1778v-1522zM754 762v1038h1294v-270h-768v-498h768v-270h-1294z" />
<glyph unicode="&#xad;" horiz-adv-x="4864" d="M-14 1018v526h4110v-526h-4110z" />
<glyph unicode="&#xae;" horiz-adv-x="3584" d="M-14 -8v2576h2830v-2576h-2830zM512 520h1778v1522h-1778v-1522zM754 762v1038h1294v-526h-256v-242h256v-270h-526v256h-242v-256h-526zM1280 1288h242v242h-242v-242z" />
<glyph unicode="&#xba;" horiz-adv-x="2048" d="M-14 2042v270h256v256h782v-256h256v-270h-256v-256h-782v256h-256zM512 2056h242v242h-242v-242z" />
<glyph unicode="&#xbf;" horiz-adv-x="4608" d="M-14 776h2048v256h526v-782h-2048v-500h3328v-526h-3854v1552zM2034 1274v526h526v-526h-526z" />
<glyph unicode="&#xc0;" d="M-14 -8v2576h4878v-2576h-526v770h-3826v-770h-526zM512 1288h3826v754h-3826v-754zM1266 3322v270h782v-256h256v-256h256v-270h-782v256h-256v256h-256z" />
<glyph unicode="&#xc1;" d="M-14 -8v2576h4878v-2576h-526v770h-3826v-770h-526zM512 1288h3826v754h-3826v-754zM2290 2810v270h256v256h256v256h782v-270h-256v-256h-256v-256h-782z" />
<glyph unicode="&#xc2;" d="M-14 -8v2576h4878v-2576h-526v770h-3826v-770h-526zM512 1288h3826v754h-3826v-754zM1778 2810v270h256v256h782v-256h256v-270h-526v256h-242v-256h-526z" />
<glyph unicode="&#xc3;" d="M-14 -8v2576h4878v-2576h-526v770h-3826v-770h-526zM512 1288h3826v754h-3826v-754zM1778 2810v270h256v256h526v-256h242v256h270v-270h-256v-256h-526v256h-242v-256h-270z" />
<glyph unicode="&#xc4;" d="M-14 -8v2576h4878v-2576h-526v770h-3826v-770h-526zM512 1288h3826v754h-3826v-754zM1266 2810v526h526v-526h-526zM3058 2810v526h526v-526h-526z" />
<glyph unicode="&#xc5;" d="M-14 -8v2576h4878v-2576h-526v770h-3826v-770h-526zM512 1288h3826v754h-3826v-754zM1778 3066v270h256v256h782v-256h256v-270h-256v-256h-782v256h-256zM2304 3080h242v242h-242v-242z" />
<glyph unicode="&#xc6;" horiz-adv-x="9984" d="M-14 -8v2576h9230v-526h-4352v-498h4352v-526h-4352v-498h4352v-528h-4878v770h-3826v-770h-526zM512 1288h3826v754h-3826v-754z" />
<glyph unicode="&#xc7;" d="M-14 -8v2576h4878v-526h-4352v-1522h4352v-528h-2048v-256h-256v-256h-782v270h256v242h-2048z" />
<glyph unicode="&#xc8;" d="M-14 -8v2576h4878v-526h-4352v-498h4352v-526h-4352v-498h4352v-528h-4878zM1266 3322v270h782v-256h256v-256h256v-270h-782v256h-256v256h-256z" />
<glyph unicode="&#xc9;" d="M-14 -8v2576h4878v-526h-4352v-498h4352v-526h-4352v-498h4352v-528h-4878zM2290 2810v270h256v256h256v256h782v-270h-256v-256h-256v-256h-782z" />
<glyph unicode="&#xca;" d="M-14 -8v2576h4878v-526h-4352v-498h4352v-526h-4352v-498h4352v-528h-4878zM1778 2810v270h256v256h782v-256h256v-270h-526v256h-242v-256h-526z" />
<glyph unicode="&#xcb;" d="M-14 -8v2576h4878v-526h-4352v-498h4352v-526h-4352v-498h4352v-528h-4878zM1266 2810v526h526v-526h-526zM3058 2810v526h526v-526h-526z" />
<glyph unicode="&#xcc;" horiz-adv-x="1536" d="M-14 3066v270h526v-256h256v-270h-526v256h-256zM242 -8v2576h526v-2576h-526z" />
<glyph unicode="&#xcd;" horiz-adv-x="1536" d="M-14 -8v2576h526v-2576h-526zM-14 2810v270h256v256h526v-270h-256v-256h-526z" />
<glyph unicode="&#xce;" horiz-adv-x="2048" d="M-14 2810v270h256v256h782v-256h256v-270h-526v256h-242v-256h-526zM242 -8v2576h526v-2576h-526z" />
<glyph unicode="&#xcf;" horiz-adv-x="1792" d="M-14 2810v526h270v-526h-270zM242 -8v2576h526v-2576h-526zM754 2810v526h270v-526h-270z" />
<glyph unicode="&#xd1;" d="M-14 -8v2576h4878v-2576h-526v2050h-3826v-2050h-526zM1778 2810v270h256v256h526v-256h242v256h270v-270h-256v-256h-526v256h-242v-256h-270z" />
<glyph unicode="&#xd2;" d="M-14 -8v2576h4878v-2576h-4878zM512 520h3826v1522h-3826v-1522zM1010 3322v270h782v-256h256v-256h256v-270h-782v256h-256v256h-256z" />
<glyph unicode="&#xd3;" d="M-14 -8v2576h4878v-2576h-4878zM512 520h3826v1522h-3826v-1522zM2546 2810v270h256v256h256v256h782v-270h-256v-256h-256v-256h-782z" />
<glyph unicode="&#xd4;" d="M-14 -8v2576h4878v-2576h-4878zM512 520h3826v1522h-3826v-1522zM1778 2810v270h256v256h782v-256h256v-270h-526v256h-242v-256h-526z" />
<glyph unicode="&#xd5;" d="M-14 -8v2576h4878v-2576h-4878zM512 520h3826v1522h-3826v-1522zM1778 2810v270h256v256h526v-256h242v256h270v-270h-256v-256h-526v256h-242v-256h-270z" />
<glyph unicode="&#xd6;" d="M-14 -8v2576h4878v-2576h-4878zM512 520h3826v1522h-3826v-1522zM1266 2810v526h526v-526h-526zM3058 2810v526h526v-526h-526z" />
<glyph unicode="&#xd8;" d="M-14 -8v2576h4878v-2576h-4878zM512 520h1010v256h256v256h256v256h256v256h256v256h256v242h-2290v-1522zM2304 520h2034v1522h-754v-256h-256v-256h-256v-256h-256v-256h-256v-256h-256v-242z" />
<glyph unicode="&#xd9;" d="M-14 -8v2576h526v-2048h3826v2048h526v-2576h-4878zM1266 3322v270h782v-256h256v-256h256v-270h-782v256h-256v256h-256z" />
<glyph unicode="&#xda;" d="M-14 -8v2576h526v-2048h3826v2048h526v-2576h-4878zM2290 2810v270h256v256h256v256h782v-270h-256v-256h-256v-256h-782z" />
<glyph unicode="&#xdb;" d="M-14 -8v2576h526v-2048h3826v2048h526v-2576h-4878zM1778 2810v270h256v256h782v-256h256v-270h-526v256h-242v-256h-526z" />
<glyph unicode="&#xdc;" d="M-14 -8v2576h526v-2048h3826v2048h526v-2576h-4878zM1266 2810v526h526v-526h-526zM3058 2810v526h526v-526h-526z" />
<glyph unicode="&#xdd;" horiz-adv-x="5376" d="M-14 1018v1550h526v-1024h3570v1024h526v-1550h-2048v-1026h-526v1026h-2048zM2546 2810v270h256v256h256v256h782v-270h-256v-256h-256v-256h-782z" />
<glyph unicode="&#xdf;" horiz-adv-x="5376" d="M-14 -520v3088h4878v-2576h-3854v528h3328v498h-3328v526h3328v498h-3826v-2562h-526z" />
<glyph unicode="&#xe0;" d="M-14 -8v2576h4878v-2576h-526v770h-3826v-770h-526zM512 1288h3826v754h-3826v-754zM1266 3322v270h782v-256h256v-256h256v-270h-782v256h-256v256h-256z" />
<glyph unicode="&#xe1;" d="M-14 -8v2576h4878v-2576h-526v770h-3826v-770h-526zM512 1288h3826v754h-3826v-754zM2290 2810v270h256v256h256v256h782v-270h-256v-256h-256v-256h-782z" />
<glyph unicode="&#xe2;" d="M-14 -8v2576h4878v-2576h-526v770h-3826v-770h-526zM512 1288h3826v754h-3826v-754zM1778 2810v270h256v256h782v-256h256v-270h-526v256h-242v-256h-526z" />
<glyph unicode="&#xe3;" d="M-14 -8v2576h4878v-2576h-526v770h-3826v-770h-526zM512 1288h3826v754h-3826v-754zM1778 2810v270h256v256h526v-256h242v256h270v-270h-256v-256h-526v256h-242v-256h-270z" />
<glyph unicode="&#xe4;" d="M-14 -8v2576h4878v-2576h-526v770h-3826v-770h-526zM512 1288h3826v754h-3826v-754zM1266 2810v526h526v-526h-526zM3058 2810v526h526v-526h-526z" />
<glyph unicode="&#xe5;" d="M-14 -8v2576h4878v-2576h-526v770h-3826v-770h-526zM512 1288h3826v754h-3826v-754zM1778 3066v270h256v256h782v-256h256v-270h-256v-256h-782v256h-256zM2304 3080h242v242h-242v-242z" />
<glyph unicode="&#xe6;" horiz-adv-x="9984" d="M-14 -8v2576h9230v-526h-4352v-498h4352v-526h-4352v-498h4352v-528h-4878v770h-3826v-770h-526zM512 1288h3826v754h-3826v-754z" />
<glyph unicode="&#xe7;" d="M-14 -8v2576h4878v-526h-4352v-1522h4352v-528h-2048v-256h-256v-256h-782v270h256v242h-2048z" />
<glyph unicode="&#xe8;" d="M-14 -8v2576h4878v-526h-4352v-498h4352v-526h-4352v-498h4352v-528h-4878zM1266 3322v270h782v-256h256v-256h256v-270h-782v256h-256v256h-256z" />
<glyph unicode="&#xe9;" d="M-14 -8v2576h4878v-526h-4352v-498h4352v-526h-4352v-498h4352v-528h-4878zM2290 2810v270h256v256h256v256h782v-270h-256v-256h-256v-256h-782z" />
<glyph unicode="&#xea;" d="M-14 -8v2576h4878v-526h-4352v-498h4352v-526h-4352v-498h4352v-528h-4878zM1778 2810v270h256v256h782v-256h256v-270h-526v256h-242v-256h-526z" />
<glyph unicode="&#xeb;" d="M-14 -8v2576h4878v-526h-4352v-498h4352v-526h-4352v-498h4352v-528h-4878zM1266 2810v526h526v-526h-526zM3058 2810v526h526v-526h-526z" />
<glyph unicode="&#xec;" horiz-adv-x="1536" d="M-14 3066v270h526v-256h256v-270h-526v256h-256zM242 -8v2576h526v-2576h-526z" />
<glyph unicode="&#xed;" horiz-adv-x="1536" d="M-14 -8v2576h526v-2576h-526zM-14 2810v270h256v256h526v-270h-256v-256h-526z" />
<glyph unicode="&#xee;" horiz-adv-x="2048" d="M-14 2810v270h256v256h782v-256h256v-270h-526v256h-242v-256h-526zM242 -8v2576h526v-2576h-526z" />
<glyph unicode="&#xef;" horiz-adv-x="1792" d="M-14 2810v526h270v-526h-270zM242 -8v2576h526v-2576h-526zM754 2810v526h270v-526h-270z" />
<glyph unicode="&#xf1;" d="M-14 -8v2576h4878v-2576h-526v2050h-3826v-2050h-526zM1778 2810v270h256v256h526v-256h242v256h270v-270h-256v-256h-526v256h-242v-256h-270z" />
<glyph unicode="&#xf2;" d="M-14 -8v2576h4878v-2576h-4878zM512 520h3826v1522h-3826v-1522zM1010 3322v270h782v-256h256v-256h256v-270h-782v256h-256v256h-256z" />
<glyph unicode="&#xf3;" d="M-14 -8v2576h4878v-2576h-4878zM512 520h3826v1522h-3826v-1522zM2546 2810v270h256v256h256v256h782v-270h-256v-256h-256v-256h-782z" />
<glyph unicode="&#xf4;" d="M-14 -8v2576h4878v-2576h-4878zM512 520h3826v1522h-3826v-1522zM1778 2810v270h256v256h782v-256h256v-270h-526v256h-242v-256h-526z" />
<glyph unicode="&#xf5;" d="M-14 -8v2576h4878v-2576h-4878zM512 520h3826v1522h-3826v-1522zM1778 2810v270h256v256h526v-256h242v256h270v-270h-256v-256h-526v256h-242v-256h-270z" />
<glyph unicode="&#xf6;" d="M-14 -8v2576h4878v-2576h-4878zM512 520h3826v1522h-3826v-1522zM1266 2810v526h526v-526h-526zM3058 2810v526h526v-526h-526z" />
<glyph unicode="&#xf8;" d="M-14 -8v2576h4878v-2576h-4878zM512 520h1010v256h256v256h256v256h256v256h256v256h256v242h-2290v-1522zM2304 520h2034v1522h-754v-256h-256v-256h-256v-256h-256v-256h-256v-256h-256v-242z" />
<glyph unicode="&#xf9;" d="M-14 -8v2576h526v-2048h3826v2048h526v-2576h-4878zM1266 3322v270h782v-256h256v-256h256v-270h-782v256h-256v256h-256z" />
<glyph unicode="&#xfa;" d="M-14 -8v2576h526v-2048h3826v2048h526v-2576h-4878zM2290 2810v270h256v256h256v256h782v-270h-256v-256h-256v-256h-782z" />
<glyph unicode="&#xfb;" d="M-14 -8v2576h526v-2048h3826v2048h526v-2576h-4878zM1778 2810v270h256v256h782v-256h256v-270h-526v256h-242v-256h-526z" />
<glyph unicode="&#xfc;" d="M-14 -8v2576h526v-2048h3826v2048h526v-2576h-4878zM1266 2810v526h526v-526h-526zM3058 2810v526h526v-526h-526z" />
<glyph unicode="&#xfd;" horiz-adv-x="5376" d="M-14 1018v1550h526v-1024h3570v1024h526v-1550h-2048v-1026h-526v1026h-2048zM2546 2810v270h256v256h256v256h782v-270h-256v-256h-256v-256h-782z" />
<glyph unicode="&#x152;" horiz-adv-x="9984" d="M-14 -8v2576h9230v-526h-4352v-498h4352v-526h-4352v-498h4352v-528h-9230zM512 520h3826v1522h-3826v-1522z" />
<glyph unicode="&#x153;" horiz-adv-x="9984" d="M-14 -8v2576h9230v-526h-4352v-498h4352v-526h-4352v-498h4352v-528h-9230zM512 520h3826v1522h-3826v-1522z" />
<glyph unicode="&#x2000;" horiz-adv-x="1796" />
<glyph unicode="&#x2001;" horiz-adv-x="3592" />
<glyph unicode="&#x2002;" horiz-adv-x="1796" />
<glyph unicode="&#x2003;" horiz-adv-x="3592" />
<glyph unicode="&#x2004;" horiz-adv-x="1197" />
<glyph unicode="&#x2005;" horiz-adv-x="898" />
<glyph unicode="&#x2006;" horiz-adv-x="598" />
<glyph unicode="&#x2007;" horiz-adv-x="598" />
<glyph unicode="&#x2008;" horiz-adv-x="449" />
<glyph unicode="&#x2009;" horiz-adv-x="718" />
<glyph unicode="&#x200a;" horiz-adv-x="199" />
<glyph unicode="&#x2010;" horiz-adv-x="4864" d="M-14 1018v526h4110v-526h-4110z" />
<glyph unicode="&#x2011;" horiz-adv-x="4864" d="M-14 1018v526h4110v-526h-4110z" />
<glyph unicode="&#x2012;" horiz-adv-x="4864" d="M-14 1018v526h4110v-526h-4110z" />
<glyph unicode="&#x2013;" horiz-adv-x="1778" d="M-14 1018v526h1024v-526h-1024z" />
<glyph unicode="&#x2014;" horiz-adv-x="2802" d="M-14 1018v526h2048v-526h-2048z" />
<glyph unicode="&#x202f;" horiz-adv-x="718" />
<glyph unicode="&#x205f;" horiz-adv-x="898" />
<glyph unicode="&#x20ac;" d="M-14 1018v526h512v1024h4366v-782h-526v256h-3314v-498h2304v-526h-2304v-498h3314v256h526v-784h-4366v1026h-512z" />
<glyph unicode="&#x2122;" horiz-adv-x="4608" d="M-14 2042v526h1550v-526h-512v-768h-526v768h-512zM1778 1274v1294h2062v-1294h-526v768h-242v-768h-526v768h-242v-768h-526z" />
<glyph unicode="&#xe000;" horiz-adv-x="2570" d="M0 0v2570h2570v-2570h-2570z" />
</font>
</defs>
</svg>
